<svg width="1816" height="371" viewBox="0 0 1816 371" fill="none" xmlns="http://www.w3.org/2000/svg">
<path d="M1815.55 185.668C1815.55 238.159 1796.93 282.315 1759.69 318.136C1722.81 353.248 1676.17 370.804 1619.78 370.804C1563.38 370.804 1516.75 353.248 1479.86 318.136C1442.62 282.315 1424 238.159 1424 185.668C1424 161.196 1428.61 137.256 1437.83 113.848C1447.41 90.44 1461.42 70.0467 1479.86 52.668C1516.75 17.556 1563.38 0 1619.78 0C1676.17 0 1722.81 17.556 1759.69 52.668C1778.13 70.0467 1791.97 90.44 1801.19 113.848C1810.76 137.256 1815.55 161.196 1815.55 185.668ZM1619.78 89.376C1590.69 89.376 1566.75 98.7747 1547.96 117.572C1529.16 136.015 1519.76 159.245 1519.76 187.264C1519.76 213.155 1529.16 235.144 1547.96 253.232C1567.46 272.029 1591.4 281.428 1619.78 281.428C1648.86 281.428 1672.62 272.207 1691.06 253.764C1710.22 234.612 1719.79 211.913 1719.79 185.668C1719.79 158.713 1710.22 136.015 1691.06 117.572C1671.2 98.7747 1647.44 89.376 1619.78 89.376Z" fill="#FA5D00"/>
<path d="M1151 8H1294.64C1332.23 8 1361.14 18.4627 1381.36 39.388C1401.57 59.9587 1411.68 86.5587 1411.68 119.188C1411.68 150.399 1402.28 175.048 1383.48 193.136C1370.36 205.549 1354.05 213.707 1334.54 217.608L1445.73 362.844H1331.35L1243.04 226.652V362.844H1151V8ZM1243.04 79.288V167.068H1260.59C1280.45 167.068 1295.35 162.28 1305.28 152.704C1313.08 144.901 1316.98 134.971 1316.98 122.912C1316.98 110.499 1312.91 100.568 1304.75 93.12C1295.53 83.8987 1280.81 79.288 1260.59 79.288H1243.04Z" fill="#FA5D00"/>
<path d="M948.744 362.844H820V8H940.764C1001.06 8 1048.05 24.3147 1081.74 56.944C1114.73 88.5093 1131.22 131.601 1131.22 186.22C1131.22 237.292 1115.79 278.256 1084.94 309.112C1069.33 324.717 1049.82 337.663 1026.42 347.948C1003.01 357.879 977.117 362.844 948.744 362.844ZM912.036 86.204V284.64H930.656C965.059 284.64 990.949 276.128 1008.33 259.104C1026.42 241.725 1035.46 217.431 1035.46 186.22C1035.46 151.817 1026.24 125.927 1007.8 108.548C991.836 93.652 967.364 86.204 934.38 86.204H912.036Z" fill="#FA5D00"/>
<path d="M704 8H796.036V362.844H704V8Z" fill="#FA5D00"/>
<path d="M389 8H532.64C570.235 8 599.14 18.4627 619.356 39.388C639.572 59.9587 649.68 86.5587 649.68 119.188C649.68 150.399 640.281 175.048 621.484 193.136C608.361 205.549 592.047 213.707 572.54 217.608L683.728 362.844H569.348L481.036 226.652V362.844H389V8ZM481.036 79.288V167.068H498.592C518.453 167.068 533.349 162.28 543.28 152.704C551.083 144.901 554.984 134.971 554.984 122.912C554.984 110.499 550.905 100.568 542.748 93.12C533.527 83.8987 518.808 79.288 498.592 79.288H481.036Z" fill="#FA5D00"/>
<path d="M186.2 235.548V163.728H369.208C369.208 200.259 364.775 231.292 355.908 256.828C347.396 282.009 332.855 304.176 312.284 323.328C280.364 353.12 238.691 368.016 187.264 368.016C130.872 368.016 85.4747 350.46 51.072 315.348C17.024 281.3 0 238.563 0 187.136C0 133.227 17.7333 88.8933 53.2 54.136C87.9573 19.3787 133.887 2 190.988 2C228.583 2 260.503 9.98 286.748 25.94C314.412 42.964 335.515 67.2587 350.056 98.824L262.276 135C256.601 120.813 248.089 108.932 236.74 99.356C222.553 87.652 206.061 81.8 187.264 81.8C163.147 81.8 142.931 89.9573 126.616 106.272C106.045 126.843 95.76 153.975 95.76 187.668C95.76 218.879 105.159 244.415 123.956 264.276C140.98 282.364 162.615 291.408 188.86 291.408C209.785 291.408 226.809 285.911 239.932 274.916C251.636 265.34 258.907 252.217 261.744 235.548H186.2Z" fill="#FA5D00"/>
</svg>
