<svg width="300" height="300" viewBox="0 0 300 300" fill="none" xmlns="http://www.w3.org/2000/svg">
<g clip-path="url(#clip0_190_312)">
<rect y="0.000976562" width="300" height="300" fill="#FA5D00"/>
<g filter="url(#filter0_ii_190_312)">
<path d="M248.925 88.918C250.851 90.5314 252.735 92.2045 254.576 93.9404C267.77 106.383 278.715 121.936 287.41 140.6C295.806 159.263 300.004 179.906 300.004 202.528V300H0.00390625V208.891C0.00391431 160.818 13.7966 123.349 41.3828 96.4854C68.0695 70.1868 104.502 57.0381 150.679 57.0381C174.627 57.0381 195.945 60.8236 214.636 68.3916L249.574 47.79L248.925 88.918Z" fill="black"/>
</g>
<path d="M105.247 119.272C106.225 118.885 107.586 118.992 108.642 119.243C108.973 119.321 108.88 119.867 109.111 119.944C109.564 120.094 109.928 119.786 110.38 119.976C110.53 120.041 110.463 120.896 110.618 120.946C111.467 121.212 112.199 120.903 113.034 120.977C117.148 121.341 121.123 121.152 125.224 121.016C126.158 120.984 127.268 121.237 128.307 121.229L132.646 120.185L133.948 125.596C133.956 126.09 134.011 126.566 134.163 127.012C134.221 127.18 134.943 126.998 135.007 127.024C135.987 127.447 134.489 127.432 134.326 127.787C133.684 129.203 133.722 130.675 134.056 131.97C134.2 132.523 135.643 131.912 134.841 132.506C134.786 132.546 134 132.428 133.921 132.584C133.744 132.935 133.895 133.586 133.834 133.857C133.713 134.376 133.721 134.461 133.706 134.952C133.679 135.626 133.264 136.411 133.398 137.143C133.429 137.301 134.242 137.141 134.363 137.401C134.484 137.663 134.365 138.33 134.155 138.54C133.947 138.749 133.327 138.594 133.18 138.621C131.938 138.821 133.534 139.748 133.56 139.864C133.704 140.428 133.691 140.96 133.592 141.467L133.598 141.433C133.366 142.667 132.651 143.712 132.316 144.903C131.957 146.19 131.76 147.665 131.194 148.836C130.515 150.229 129.52 151.161 128.809 152.439C128.732 152.575 129.628 152.922 129.533 153.092C129.252 153.59 128.945 154.07 128.608 154.526C127.706 155.752 126.556 156.834 125.147 157.574C124.953 157.674 124.563 156.897 124.338 156.958C122.939 157.389 120.617 157.138 122.044 160.519C121.241 160.91 120.237 161.348 119.223 161.068C118.574 160.884 118.565 159.869 118.233 160.476C118.155 160.611 118.667 161.238 118.518 161.39C117.882 162.035 116.929 162.172 116.289 162.85C116.158 162.991 116.45 163.637 116.448 163.774C116.398 164.897 115.163 163.512 114.996 163.433C113.649 162.891 113.001 163.433 111.994 163.628C111.761 163.672 112.233 164.544 112.011 164.62C111.192 164.888 110.32 165.019 109.46 164.962C109.102 164.938 108.752 164.883 108.399 164.793C108.134 164.722 108.293 163.893 108.164 163.817C107.613 163.489 107.605 165.024 107.061 164.726C106.947 164.664 106.971 163.968 106.947 163.893C106.584 162.716 106.399 164.417 106.314 164.458C105.292 164.999 104.655 163.222 103.707 163.423C103.589 163.447 103.804 164.339 103.469 164.355C101.236 164.465 98.8202 163.758 96.9819 162.385C96.6963 162.173 97.1408 161.628 97.1457 161.544C97.2526 160.238 96.4828 161.766 96.3508 161.785C95.3541 161.902 95.2361 160.286 93.8234 161.85C91.6957 160.275 89.3681 159.107 87.7088 157.161L87.7328 157.183C87.0022 156.34 86.4112 155.352 86.1114 154.178C86.0978 154.131 86.7747 153.631 86.746 153.542C86.4207 152.455 85.5788 153.467 83.8713 153.891C83.4344 153.987 84.6137 152.367 84.7043 152.251C85.0159 151.801 86.1187 151.193 86.1651 151.088C86.5352 150.261 83.2537 152.763 82.8524 152.195C82.8462 152.174 83.519 151.813 83.5489 151.724C83.6451 151.447 83.2997 151.476 83.4223 151.19C83.7072 150.527 85.3283 149.351 84.0488 149.501C83.8826 149.518 81.9511 150.849 81.732 150.268C81.6443 150.039 81.0881 149.127 81.0885 148.791C81.0856 148.458 81.8488 148.292 81.8675 148.257C82.4043 147.119 82.9071 147.193 84.074 146.223C85.2493 145.276 82.1256 146.867 81.7042 146.89C81.2821 146.912 81.801 146.061 82.0132 145.828C82.2229 145.593 82.7276 145.554 82.8302 145.383C83.5083 144.273 81.093 145.741 80.4762 145.706C79.0076 145.589 81.257 144.181 81.321 143.59C81.3366 143.425 80.8174 143.735 80.7206 143.624C80.3446 143.173 81.0209 142.627 80.1343 142.253C79.9907 142.196 78.344 142.122 79.367 141.502C79.5153 141.416 80.1739 141.373 80.2564 141.117C80.3797 140.731 80.3753 140.112 80.0858 139.803C79.8715 139.575 78.8952 140.107 79.146 139.699C79.259 139.519 79.9279 139.663 80.0904 139.339C80.2521 139.018 80.0911 138.326 80.0247 138.064C79.9566 137.801 79.1841 138.084 79.1266 138.072C78.7949 137.993 78.3239 137.525 78.3182 137.476C78.243 137.094 78.2123 136.715 78.2104 136.333C78.2029 134.342 78.9837 132.472 78.6281 130.552C78.5964 130.37 77.741 130.477 77.7274 130.45C77.3822 129.809 79.6409 130.351 80.4115 129.954C78.6783 129.963 78.9974 129.719 78.8283 129.278C78.7459 129.064 78.0703 129.143 78.0026 129.12C77.0019 128.743 78.3315 128.596 78.6037 128.562C79.6056 128.427 78.4565 128.115 79.1284 128.029C79.7949 127.95 80.738 128.34 80.7609 127.946C80.1541 127.773 78.5111 127.934 78.2799 127.588C77.3902 126.246 79.0469 124.125 79.4187 123.242C79.7792 122.328 79.7639 121.995 80.1418 121.519C80.8365 120.672 79.5789 120.659 79.2774 119.849C78.9897 119.03 81.6517 120.37 82.2792 120.506C82.9037 120.651 82.3239 120.334 82.6879 120.362C83.0505 120.393 83.3749 120.752 83.5825 120.58C83.7852 120.415 82.9919 119.383 82.4232 119.028C81.2106 118.287 79.7211 117.989 80.493 117.544C80.5379 117.52 81.1899 117.964 81.3259 117.857C82.3779 117.007 83.0061 115.937 84.0824 115.223C84.2308 115.127 84.8857 115.711 84.9792 115.662C85.5952 115.352 85.2593 115.037 84.6644 114.493C84.3166 114.187 83.8842 113.806 83.5108 113.302C85.2291 114.614 86.4769 115.111 86.8842 114.575C87.1356 114.25 86.3401 113.742 85.9867 113.112C85.8812 112.92 86.5811 113.079 86.2704 112.759C85.2653 111.701 83.8035 110.917 84.8368 110.689C84.8833 110.682 85.4139 111.282 85.5296 111.22C86.2782 110.838 85.2129 109.753 85.7149 108.971C86.1127 108.352 87.6629 108.182 88.3546 107.823C89.8834 109.704 90.0302 108.875 89.2755 107.356C89.7164 107.112 90.1097 106.723 90.64 106.655C90.8215 106.631 91.1108 107.281 91.1696 107.333C92.0644 108.172 91.3714 106.69 91.4347 106.577C92.1246 105.438 93.4989 106.117 94.0014 104.578C94.0169 104.524 93.4131 102.948 94.1774 103.961C94.2255 104.033 94.1915 104.878 94.6889 104.734C95.2013 104.584 96.3804 105.108 96.8067 104.158C96.905 103.929 96.9494 102.485 97.5865 103.418C97.6706 103.545 97.7515 104.024 97.887 104.265C98.3128 105.037 97.9907 103.36 98.5927 104.699C99.1964 106.039 99.8671 106.987 100.295 105.883C100.308 105.851 100.199 104.495 100.416 104.476C100.761 104.447 101.28 104.645 101.628 104.585C101.794 104.556 101.567 103.743 101.594 103.723C101.776 103.617 101.956 103.548 102.135 103.507C103.022 103.307 103.83 103.797 104.857 104.029C105.073 104.082 105.733 102.927 106.169 103.84C106.62 104.842 106.054 108.932 107.005 107.999C107.338 107.627 108.453 102.479 108.902 105.274C110.517 104.838 111.473 106.506 113.15 106.13C113.224 106.113 113.968 104.841 114.124 104.927C114.347 105.055 114.2 105.735 114.338 105.846C114.677 106.13 115.1 106.171 115.52 106.25C115.818 106.308 116.109 106.382 116.345 106.564C116.56 106.731 116.118 107.286 116.361 107.482C116.599 107.676 117.287 107.014 117.395 107.629C117.478 108.099 116.623 109.817 116.787 110.218C117.925 108.736 118.13 108.934 118.844 108.88C118.983 108.87 119.311 108.299 119.399 108.268C119.769 108.138 119.563 108.671 119.945 108.518C120.037 108.482 120.457 108.001 120.558 107.946C121.438 107.463 120.887 108.909 120.773 109.147C120.372 110.075 121.061 109.589 120.987 110.044C120.905 110.492 120.302 110.547 120.349 110.918C120.441 111.679 121.026 112.176 121.395 112.669C121.544 112.863 122.097 112.193 122.133 112.208C122.639 112.483 122.229 113.441 123.767 112.666C120.444 115.557 124.303 112.667 124.031 113.817C124.008 113.909 122.329 115.131 121.959 115.13C121.591 115.132 121.934 114.493 121.377 114.537C121.242 114.541 119.462 115.41 119.343 115.449C118.388 115.719 120.779 113.747 120.896 113.62C122.165 112.262 120.223 113.206 120.041 113.219C119.172 113.228 119.173 112.59 118.508 112.591C118.077 112.591 116.638 114.027 116.533 113.84C116.201 113.241 117.8 110.877 115.712 112.348C115.27 112.668 114.022 114.505 114.708 112.834C114.76 112.734 115.39 111.214 114.627 111.915C114.532 112.004 114.164 112.537 114.106 112.563C113.724 112.727 113.884 112.215 113.543 112.29C113.202 112.367 112.775 112.54 112.648 112.217C112.604 112.106 112.712 111.685 112.819 111.283L112.845 111.297C112.928 110.994 113.01 110.701 113.036 110.572C113.203 109.701 112.366 110.846 112.669 109.853C112.949 108.843 113.921 107.557 113.754 106.75C113.061 108.282 112.337 109.849 111.647 111.392C110.979 111.038 110.405 110.273 109.582 110.151C109.482 110.139 109.372 111.042 109.264 111.052C108.823 111.098 108.559 110.393 108.053 110.581C107.662 110.73 107.182 111.644 106.818 111.861C106.725 109.925 106.084 110.551 105.664 110.379C105.513 110.319 105.517 109.806 105.403 109.64C104.961 109.029 105.207 110.725 105.105 110.995C104.697 112.154 104.455 108.311 103.808 108.458C103.766 108.465 103.567 110.544 103.537 110.677C103.3 111.541 103.405 109.973 103.174 109.847C103.088 109.8 103.004 109.744 102.923 109.691C102.602 109.484 102.311 109.31 102.016 109.842C101.904 110.04 101.823 111.351 101.391 110.428C101.334 110.307 101.223 109.638 101.187 109.605C100.548 109.058 100.978 111.147 100.886 111.908C100.804 112.666 100.063 111.339 99.8605 110.956C99.3526 109.957 99.9082 110.457 99.8929 110.351C99.7172 109.074 99.4541 109.368 99.1799 109.334C98.5795 107.332 98.2378 107.563 98.8977 109.307C98.9688 109.498 99.1041 109.256 99.1799 109.334C99.5133 111.369 99.311 111.701 98.3122 110.016C97.8382 109.23 97.6764 108.173 97.2015 108.752C96.9901 109.015 97.6016 110.322 97.528 110.771C97.382 111.787 96.2405 110.827 95.8327 111.272C95.6936 111.429 96.2202 112.044 96.1423 112.173C95.9465 112.515 95.398 112.144 95.2569 112.58C95.2459 112.619 95.7285 113.291 95.6486 113.351C95.061 113.817 94.2214 113.757 93.5777 114.26C93.2644 114.503 93.0562 115.3 92.7145 115.513C92.1278 115.869 90.6197 115.771 90.4412 116.477C90.3309 116.924 91.0465 117.349 91.3962 117.819C92.0334 118.639 90.4671 118.144 89.9655 118.012L89.9328 118.06C89.89 118.047 89.8557 118.037 89.8319 118.029C89.8301 118.028 89.8302 118.014 89.8287 117.99L89.8607 117.942C89.8517 117.838 89.8135 117.551 89.4365 117.491C88.9684 117.259 89.1957 117.47 89.4654 117.68L89.4361 117.724C89.6237 117.874 89.8316 118.026 89.8319 118.029C89.6378 117.962 89.0731 118.488 89.133 118.698C89.1647 118.812 89.8542 119.181 89.859 119.231C89.9615 120.408 89.742 121.263 89.0359 121.973C89.0148 121.982 88.2231 121.612 88.183 121.639C87.6006 122.013 88.4608 122.757 88.9141 123.376C89.3665 124 89.0738 124.228 87.557 124.068C87.6386 124.453 86.8706 124.766 86.4085 124.973C85.9458 125.182 87.5976 125.595 87.6249 125.625C88.5126 126.61 87.483 126.845 87.2198 127.667C87.0916 128.054 87.2608 128.871 87.4222 129.313C87.5508 129.661 87.1435 129.85 87.3879 130.178C87.4206 130.222 88.1787 130.202 88.2075 130.216C89.1038 130.581 87.2581 130.373 86.9258 130.439C85.719 130.685 85.0749 130.873 85.6446 131.359C85.775 131.478 88.4453 131.74 88.6071 131.914C88.813 132.15 87.8548 132.093 88.0971 132.345C88.1171 132.366 88.7052 132.335 88.6872 132.495C88.611 133.231 88.3409 134.084 88.4977 134.871C88.5169 134.978 89.4274 134.726 89.4702 134.876C89.4723 134.883 89.4744 134.891 89.4765 134.898C89.6708 135.585 89.7516 136.323 89.4581 137.063C89.3822 137.248 88.7203 137.276 88.537 137.35C87.4313 137.817 89.1729 137.782 89.2148 137.818C90.2835 138.814 89.0592 140.137 90.1781 141.051C90.2454 141.11 92.1188 140.879 90.7479 141.669C90.6547 141.718 89.2636 142.558 90.352 142.303C90.4194 142.286 91.1239 141.833 91.1403 142.079C91.1598 142.331 91.8089 142.417 91.1376 143.105C90.923 143.316 89.6197 144.291 90.8972 143.967C90.9943 143.96 93.7213 142.919 92.0755 144.05C91.8051 144.237 89.9742 145.291 91.098 145.057C91.3135 145.007 91.6491 144.655 91.9937 144.654C92.5187 144.642 92.248 145.261 93.2075 144.993C93.3802 144.95 94.6706 144.296 93.9012 145.083C93.7819 145.208 93.1809 145.58 93.1791 145.71C93.1744 146.337 93.8637 146.44 93.8303 147.137C93.8226 147.386 92.9096 148.074 92.8206 148.43C92.7302 148.786 92.8151 149.302 93.3388 149.09C93.8578 148.874 94.9867 147.437 95.2931 147.536C95.5869 147.629 95.823 147.774 96.0283 147.956L96.0968 148.018C96.782 148.639 97.0782 149.719 97.7883 150.313C97.9209 150.423 98.1466 149.8 98.3584 149.915C99.1733 150.368 100.634 150.344 100.976 151.871C101.301 153.117 100.237 153.686 100.645 154.27C100.87 154.555 101.655 152.573 101.717 152.519C102.413 151.987 102.632 152.972 103.215 152.759C103.331 152.714 103.331 151.852 103.424 151.822C103.738 151.71 104.026 152.119 104.333 152.067C104.471 152.041 104.479 151.387 104.596 151.443C104.879 151.568 105.128 151.847 105.44 152.457C105.471 152.513 105.279 153.327 105.522 153.355C105.911 153.398 106.46 153.979 106.889 153.319C107.017 153.12 106.883 151.635 107.271 152.633C107.351 152.841 107.463 154.633 107.649 153.054C107.661 152.945 107.728 152.511 107.827 152.135C107.967 151.604 108.147 151.188 108.427 151.94C108.55 152.28 108.98 153.696 109.113 153.438C109.128 153.398 108.901 152.624 109.019 152.523C109.436 152.182 109.923 152.162 110.303 151.803C110.401 151.706 110.021 150.949 110.167 150.832C110.562 150.509 111.145 150.543 111.646 150.629C111.831 150.662 111.975 151.343 112.012 151.409C112.646 152.468 112.15 150.896 112.165 150.786C112.294 150.111 112.87 150.692 113.098 150.347C113.158 150.255 112.737 149.591 112.721 149.52C112.565 148.832 113.099 150.14 113.281 150.219C113.799 150.439 114.121 150.174 114.358 149.896C114.444 149.793 113.823 149.116 113.9 149.036C114.338 148.552 114.866 148.235 115.683 148.141C115.838 148.124 116.272 148.677 116.402 148.773C117.331 149.427 116.449 148.146 116.377 148.009C116.082 147.353 116.609 147.69 116.69 147.418C116.793 147.043 116.957 146.696 117.163 146.356L117.169 146.347C117.731 145.436 118.496 144.624 119.046 143.868C120.03 142.512 121.073 141.37 121.2 139.627C121.207 139.518 120.272 139.474 120.266 139.381C120.266 139.361 120.265 139.341 120.265 139.32L120.275 139.257C120.274 138.038 120.733 136.787 120.511 135.414C120.494 135.301 119.608 135.436 119.551 135.256C119.427 134.888 119.48 134.426 119.759 134.043C119.894 133.857 120.652 134.103 120.771 133.912C121.052 133.463 121.103 132.97 120.943 132.506C120.873 132.31 119.984 132.643 119.964 132.389C119.812 130.772 119.528 129.176 120.218 127.344L130.055 134.959C129.897 134.908 129.739 134.851 129.579 134.787C129.426 134.726 129.069 132.924 128.809 133.312C128.85 133.819 128.927 134.412 128.986 134.953C126.016 135.626 122.96 135.375 119.933 135.661C119.805 135.673 120.148 136.609 119.901 136.637C118.475 136.804 117.126 137.247 115.547 136.475C115.39 136.4 115.249 134.696 114.855 135.007C114.786 135.063 114.173 135.371 114.054 135.76C114.039 135.818 114.257 136.594 114.053 136.644C112.867 136.917 111.584 136.896 110.324 136.566C110.12 136.511 110.219 135.642 110.073 135.596C109.038 135.274 108.055 136.049 107.024 135.403C106.332 134.968 106.379 133.483 105.864 132.092C105.791 131.896 105.4 131.913 105.273 131.082C104.955 128.992 104.85 126.672 104.489 124.447C104.411 123.968 103.959 124.552 104.118 123.35C104.129 123.269 104.456 122.835 104.499 122.429C104.528 122.148 104.304 121.315 104.391 120.949C104.478 120.583 104.713 121.275 104.879 120.837C105.045 120.394 104.826 119.442 105.247 119.272ZM84.3587 126.002C83.5006 126.168 86.4442 126.7 85.7915 126.276C85.7565 126.255 84.4009 125.993 84.3587 126.002ZM111.042 108.133C111.033 106.753 110.27 108.561 110.248 109.61C110.193 110.65 111.029 108.547 111.042 108.133ZM115.122 108.892C115.221 107.743 113.08 111.406 113.888 110.885C113.934 110.856 115.115 108.958 115.122 108.892ZM107.353 131.488C107.344 131.449 107.06 131.446 107.059 131.486C107.03 132.447 107.597 132.452 107.353 131.488ZM119.192 110.656C119.465 110.125 118.68 110.311 118.349 110.973C118.076 111.497 118.842 111.306 119.192 110.656ZM82.6953 143.097C82.6548 143.117 82.6829 143.318 82.9191 143.23C83.6791 142.946 83.3749 142.769 82.6953 143.097ZM123.899 116.6C123.486 115.576 126.005 113.027 126.398 114.406C126.462 114.649 125.171 114.541 125.063 114.969C124.851 115.725 126.944 114.948 126.197 116.032C126.054 116.217 123.914 116.655 123.894 116.601C123.896 116.601 123.898 116.6 123.899 116.6ZM80.7875 125.568C80.747 125.568 80.6642 125.838 80.7022 125.851C81.6157 126.147 81.7797 125.622 80.7875 125.568ZM87.2525 154.211C87.2005 154.282 87.62 154.828 87.6922 154.788C89.0279 153.935 88.2385 152.886 87.2525 154.211ZM88.4049 107.865C88.0604 106.913 88.3439 106.552 89.2735 107.356C88.9702 107.502 88.7012 107.7 88.4049 107.865Z" fill="white"/>
<path d="M170.641 119.272C171.62 118.885 172.981 118.992 174.037 119.243C174.367 119.321 174.274 119.867 174.506 119.944C174.958 120.094 175.322 119.786 175.775 119.976C175.925 120.041 175.857 120.896 176.012 120.946C176.861 121.212 177.593 120.903 178.429 120.977C182.543 121.341 186.518 121.152 190.618 121.016C191.553 120.984 192.663 121.237 193.701 121.229L198.041 120.185L199.343 125.596C199.35 126.09 199.405 126.566 199.558 127.012C199.616 127.18 200.337 126.998 200.401 127.024C201.382 127.447 199.884 127.432 199.721 127.787C199.079 129.203 199.116 130.675 199.451 131.97C199.594 132.523 201.038 131.912 200.235 132.506C200.181 132.546 199.394 132.428 199.315 132.584C199.139 132.935 199.29 133.586 199.229 133.857C199.108 134.376 199.115 134.461 199.101 134.952C199.073 135.626 198.658 136.411 198.792 137.143C198.823 137.301 199.637 137.141 199.758 137.401C199.879 137.663 199.76 138.33 199.55 138.54C199.341 138.749 198.722 138.594 198.574 138.621C197.333 138.821 198.928 139.748 198.955 139.864C199.098 140.428 199.086 140.96 198.987 141.467L198.992 141.433C198.76 142.667 198.045 143.712 197.71 144.903C197.352 146.19 197.155 147.665 196.588 148.836C195.909 150.229 194.915 151.161 194.204 152.439C194.126 152.575 195.023 152.922 194.927 153.092C194.647 153.59 194.339 154.07 194.002 154.526C193.101 155.752 191.95 156.834 190.542 157.574C190.348 157.674 189.957 156.897 189.732 156.958C188.334 157.389 186.011 157.138 187.438 160.519C186.635 160.91 185.632 161.348 184.617 161.068C183.969 160.884 183.96 159.869 183.627 160.476C183.55 160.611 184.062 161.238 183.913 161.39C183.277 162.035 182.323 162.172 181.684 162.85C181.553 162.991 181.845 163.637 181.842 163.774C181.792 164.897 180.557 163.512 180.39 163.433C179.044 162.891 178.396 163.433 177.388 163.628C177.156 163.672 177.628 164.544 177.406 164.62C176.586 164.888 175.714 165.019 174.854 164.962C174.496 164.938 174.146 164.883 173.794 164.793C173.528 164.722 173.687 163.893 173.558 163.817C173.008 163.489 173 165.024 172.456 164.726C172.342 164.664 172.366 163.968 172.342 163.893C171.978 162.716 171.793 164.417 171.709 164.458C170.686 164.999 170.05 163.222 169.102 163.423C168.984 163.447 169.198 164.339 168.864 164.355C166.631 164.465 164.215 163.758 162.376 162.385C162.091 162.173 162.535 161.628 162.54 161.544C162.647 160.238 161.877 161.766 161.745 161.785C160.749 161.902 160.631 160.286 159.218 161.85C157.09 160.275 154.763 159.107 153.103 157.161L153.127 157.183C152.397 156.34 151.806 155.352 151.506 154.178C151.492 154.131 152.169 153.631 152.141 153.542C151.815 152.455 150.973 153.467 149.266 153.891C148.829 153.987 150.008 152.367 150.099 152.251C150.41 151.801 151.513 151.193 151.56 151.088C151.93 150.261 148.648 152.763 148.247 152.195C148.241 152.174 148.914 151.813 148.943 151.724C149.04 151.447 148.694 151.476 148.817 151.19C149.102 150.527 150.723 149.351 149.443 149.501C149.277 149.518 147.346 150.849 147.127 150.268C147.039 150.039 146.483 149.127 146.483 148.791C146.48 148.458 147.243 148.292 147.262 148.257C147.799 147.119 148.302 147.193 149.469 146.223C150.644 145.276 147.52 146.867 147.099 146.89C146.677 146.912 147.196 146.061 147.408 145.828C147.617 145.593 148.122 145.554 148.225 145.383C148.903 144.273 146.488 145.741 145.871 145.706C144.402 145.589 146.652 144.181 146.716 143.59C146.731 143.425 146.212 143.735 146.115 143.624C145.739 143.173 146.415 142.627 145.529 142.253C145.385 142.196 143.739 142.122 144.762 141.502C144.91 141.416 145.568 141.373 145.651 141.117C145.774 140.731 145.77 140.112 145.48 139.803C145.266 139.575 144.29 140.107 144.541 139.699C144.654 139.519 145.322 139.663 145.485 139.339C145.647 139.018 145.486 138.326 145.419 138.064C145.351 137.801 144.579 138.084 144.521 138.072C144.189 137.993 143.718 137.525 143.713 137.476C143.638 137.094 143.607 136.715 143.605 136.333C143.597 134.342 144.378 132.472 144.023 130.552C143.991 130.37 143.136 130.477 143.122 130.45C142.777 129.809 145.035 130.351 145.806 129.954C144.073 129.963 144.392 129.719 144.223 129.278C144.14 129.064 143.465 129.143 143.397 129.12C142.396 128.743 143.726 128.596 143.998 128.562C145 128.427 143.851 128.115 144.523 128.029C145.189 127.95 146.133 128.34 146.155 127.946C145.549 127.773 143.906 127.934 143.674 127.588C142.785 126.246 144.441 124.125 144.813 123.242C145.174 122.328 145.158 121.995 145.536 121.519C146.231 120.672 144.973 120.659 144.672 119.849C144.384 119.03 147.046 120.37 147.674 120.506C148.298 120.651 147.718 120.334 148.082 120.362C148.445 120.393 148.769 120.752 148.977 120.58C149.18 120.415 148.386 119.383 147.818 119.028C146.605 118.287 145.116 117.989 145.887 117.544C145.932 117.52 146.584 117.964 146.72 117.857C147.772 117.007 148.401 115.937 149.477 115.223C149.625 115.127 150.28 115.711 150.374 115.662C150.99 115.352 150.654 115.037 150.059 114.493C149.711 114.187 149.279 113.806 148.905 113.302C150.624 114.614 151.871 115.111 152.279 114.575C152.53 114.25 151.735 113.742 151.381 113.112C151.276 112.92 151.976 113.079 151.665 112.759C150.66 111.701 149.198 110.917 150.231 110.689C150.278 110.682 150.808 111.282 150.924 111.22C151.673 110.838 150.607 109.753 151.109 108.971C151.507 108.352 153.057 108.182 153.749 107.823C155.278 109.704 155.425 108.875 154.67 107.356C155.111 107.112 155.504 106.723 156.035 106.655C156.216 106.631 156.505 107.281 156.564 107.333C157.459 108.172 156.766 106.69 156.829 106.577C157.519 105.438 158.893 106.117 159.396 104.578C159.411 104.524 158.808 102.948 159.572 103.961C159.62 104.033 159.586 104.878 160.083 104.734C160.596 104.584 161.775 105.108 162.201 104.158C162.299 103.929 162.344 102.485 162.981 103.418C163.065 103.545 163.146 104.024 163.282 104.265C163.707 105.037 163.385 103.36 163.987 104.699C164.591 106.039 165.262 106.987 165.69 105.883C165.703 105.851 165.594 104.495 165.811 104.476C166.155 104.447 166.675 104.645 167.023 104.585C167.188 104.556 166.961 103.743 166.988 103.723C167.171 103.617 167.351 103.548 167.53 103.507C168.416 103.307 169.224 103.797 170.251 104.029C170.467 104.082 171.127 102.927 171.563 103.84C172.014 104.842 171.448 108.932 172.4 107.999C172.733 107.627 173.848 102.479 174.296 105.274C175.911 104.838 176.867 106.506 178.545 106.13C178.619 106.113 179.363 104.841 179.518 104.927C179.741 105.055 179.594 105.735 179.733 105.846C180.071 106.13 180.495 106.171 180.915 106.25C181.212 106.308 181.504 106.382 181.739 106.564C181.954 106.731 181.512 107.286 181.755 107.482C181.994 107.676 182.681 107.014 182.79 107.629C182.872 108.099 182.018 109.817 182.181 110.218C183.32 108.736 183.524 108.934 184.238 108.88C184.377 108.87 184.706 108.299 184.794 108.268C185.163 108.138 184.958 108.671 185.339 108.518C185.432 108.482 185.852 108.001 185.952 107.946C186.832 107.463 186.281 108.909 186.168 109.147C185.767 110.075 186.455 109.589 186.381 110.044C186.299 110.492 185.696 110.547 185.743 110.918C185.835 111.679 186.42 112.176 186.79 112.669C186.939 112.863 187.491 112.193 187.528 112.208C188.034 112.483 187.624 113.441 189.162 112.666C185.839 115.557 189.698 112.667 189.425 113.817C189.402 113.909 187.724 115.131 187.353 115.13C186.985 115.132 187.329 114.493 186.771 114.537C186.637 114.541 184.856 115.41 184.737 115.449C183.783 115.719 186.173 113.747 186.29 113.62C187.56 112.262 185.617 113.206 185.436 113.219C184.567 113.228 184.567 112.59 183.903 112.591C183.472 112.591 182.032 114.027 181.928 113.84C181.596 113.241 183.195 110.877 181.106 112.348C180.665 112.668 179.416 114.505 180.103 112.834C180.154 112.734 180.784 111.214 180.021 111.915C179.926 112.004 179.559 112.537 179.5 112.563C179.118 112.727 179.279 112.215 178.937 112.29C178.597 112.367 178.17 112.54 178.043 112.217C177.999 112.106 178.107 111.685 178.213 111.283L178.24 111.297C178.323 110.994 178.404 110.701 178.431 110.572C178.598 109.701 177.761 110.846 178.064 109.853C178.343 108.843 179.315 107.557 179.149 106.75C178.456 108.282 177.732 109.849 177.042 111.392C176.374 111.038 175.8 110.273 174.977 110.151C174.876 110.139 174.766 111.042 174.659 111.052C174.218 111.098 173.953 110.393 173.448 110.581C173.056 110.73 172.577 111.644 172.213 111.861C172.12 109.925 171.478 110.551 171.059 110.379C170.907 110.319 170.912 109.806 170.797 109.64C170.355 109.029 170.602 110.725 170.5 110.995C170.092 112.154 169.849 108.311 169.202 108.458C169.161 108.465 168.962 110.544 168.932 110.677C168.694 111.541 168.799 109.973 168.569 109.847C168.482 109.8 168.399 109.744 168.317 109.691C167.996 109.484 167.705 109.31 167.411 109.842C167.299 110.04 167.218 111.351 166.786 110.428C166.728 110.307 166.617 109.638 166.582 109.605C165.943 109.058 166.373 111.147 166.281 111.908C166.198 112.666 165.457 111.339 165.255 110.956C164.747 109.957 165.303 110.457 165.287 110.351C165.112 109.074 164.849 109.368 164.574 109.334C163.974 107.332 163.632 107.563 164.292 109.307C164.363 109.498 164.499 109.256 164.574 109.334C164.908 111.369 164.706 111.701 163.707 110.016C163.233 109.23 163.071 108.173 162.596 108.752C162.385 109.015 162.996 110.322 162.922 110.771C162.777 111.787 161.635 110.827 161.227 111.272C161.088 111.429 161.615 112.044 161.537 112.173C161.341 112.515 160.793 112.144 160.651 112.58C160.64 112.619 161.123 113.291 161.043 113.351C160.456 113.817 159.616 113.757 158.972 114.26C158.659 114.503 158.451 115.3 158.109 115.513C157.522 115.869 156.014 115.771 155.836 116.477C155.725 116.924 156.441 117.349 156.791 117.819C157.428 118.639 155.862 118.144 155.36 118.012L155.327 118.06C155.285 118.047 155.25 118.037 155.226 118.029C155.225 118.028 155.225 118.014 155.223 117.99L155.255 117.942C155.246 117.838 155.208 117.551 154.831 117.491C154.363 117.259 154.59 117.47 154.86 117.68L154.831 117.724C155.018 117.874 155.226 118.026 155.226 118.029C155.032 117.962 154.468 118.488 154.528 118.698C154.559 118.812 155.249 119.181 155.254 119.231C155.356 120.408 155.137 121.263 154.43 121.973C154.409 121.982 153.618 121.612 153.578 121.639C152.995 122.013 153.855 122.757 154.309 123.376C154.761 124 154.468 124.228 152.952 124.068C153.033 124.453 152.265 124.766 151.803 124.973C151.34 125.182 152.992 125.595 153.019 125.625C153.907 126.61 152.878 126.845 152.614 127.667C152.486 128.054 152.655 128.871 152.817 129.313C152.945 129.661 152.538 129.85 152.782 130.178C152.815 130.222 153.573 130.202 153.602 130.216C154.498 130.581 152.653 130.373 152.32 130.439C151.114 130.685 150.469 130.873 151.039 131.359C151.17 131.478 153.84 131.74 154.002 131.914C154.207 132.15 153.249 132.093 153.492 132.345C153.512 132.366 154.1 132.335 154.082 132.495C154.006 133.231 153.735 134.084 153.892 134.871C153.911 134.978 154.822 134.726 154.865 134.876C154.867 134.883 154.869 134.891 154.871 134.898C155.065 135.585 155.146 136.323 154.853 137.063C154.777 137.248 154.115 137.276 153.932 137.35C152.826 137.817 154.567 137.782 154.609 137.818C155.678 138.814 154.454 140.137 155.573 141.051C155.64 141.11 157.513 140.879 156.142 141.669C156.049 141.718 154.658 142.558 155.747 142.303C155.814 142.286 156.518 141.833 156.535 142.079C156.554 142.331 157.203 142.417 156.532 143.105C156.318 143.316 155.014 144.291 156.292 143.967C156.389 143.96 159.116 142.919 157.47 144.05C157.2 144.237 155.369 145.291 156.493 145.057C156.708 145.007 157.044 144.655 157.388 144.654C157.913 144.642 157.643 145.261 158.602 144.993C158.775 144.95 160.065 144.296 159.296 145.083C159.176 145.208 158.575 145.58 158.574 145.71C158.569 146.337 159.258 146.44 159.225 147.137C159.217 147.386 158.304 148.074 158.215 148.43C158.125 148.786 158.21 149.302 158.733 149.09C159.252 148.874 160.381 147.437 160.688 147.536C160.981 147.629 161.218 147.774 161.423 147.956L161.491 148.018C162.177 148.639 162.473 149.719 163.183 150.313C163.315 150.423 163.541 149.8 163.753 149.915C164.568 150.368 166.029 150.344 166.371 151.871C166.696 153.117 165.632 153.686 166.039 154.27C166.264 154.555 167.049 152.573 167.111 152.519C167.807 151.987 168.026 152.972 168.61 152.759C168.726 152.714 168.725 151.852 168.819 151.822C169.132 151.71 169.42 152.119 169.728 152.067C169.865 152.041 169.873 151.387 169.991 151.443C170.273 151.568 170.523 151.847 170.834 152.457C170.865 152.513 170.673 153.327 170.917 153.355C171.306 153.398 171.854 153.979 172.283 153.319C172.412 153.12 172.277 151.635 172.665 152.633C172.746 152.841 172.858 154.633 173.043 153.054C173.056 152.945 173.123 152.511 173.221 152.135C173.361 151.604 173.541 151.188 173.821 151.94C173.944 152.28 174.374 153.696 174.507 153.438C174.523 153.398 174.295 152.624 174.414 152.523C174.83 152.182 175.318 152.162 175.698 151.803C175.796 151.706 175.416 150.949 175.562 150.832C175.957 150.509 176.54 150.543 177.04 150.629C177.226 150.662 177.37 151.343 177.407 151.409C178.041 152.468 177.545 150.896 177.56 150.786C177.688 150.111 178.265 150.692 178.492 150.347C178.552 150.255 178.131 149.591 178.116 149.52C177.96 148.832 178.494 150.14 178.676 150.219C179.193 150.439 179.516 150.174 179.753 149.896C179.839 149.793 179.217 149.116 179.294 149.036C179.733 148.552 180.26 148.235 181.078 148.141C181.233 148.124 181.666 148.677 181.797 148.773C182.726 149.427 181.843 148.146 181.772 148.009C181.477 147.353 182.004 147.69 182.084 147.418C182.187 147.043 182.352 146.696 182.557 146.356L182.564 146.347C183.126 145.436 183.891 144.624 184.441 143.868C185.425 142.512 186.468 141.37 186.594 139.627C186.602 139.518 185.667 139.474 185.661 139.381C185.66 139.361 185.66 139.341 185.66 139.32L185.67 139.257C185.669 138.038 186.128 136.787 185.906 135.414C185.889 135.301 185.003 135.436 184.946 135.256C184.822 134.888 184.874 134.426 185.154 134.043C185.288 133.857 186.046 134.103 186.166 133.912C186.446 133.463 186.497 132.97 186.338 132.506C186.268 132.31 185.379 132.643 185.358 132.389C185.206 130.772 184.923 129.176 185.612 127.344L195.449 134.959C195.292 134.908 195.133 134.851 194.974 134.787C194.82 134.726 194.463 132.924 194.204 133.312C194.245 133.819 194.322 134.412 194.38 134.953C191.411 135.626 188.355 135.375 185.327 135.661C185.2 135.673 185.542 136.609 185.296 136.637C183.869 136.804 182.52 137.247 180.941 136.475C180.785 136.4 180.643 134.696 180.25 135.007C180.181 135.063 179.568 135.371 179.449 135.76C179.433 135.818 179.651 136.594 179.447 136.644C178.261 136.917 176.979 136.896 175.718 136.566C175.514 136.511 175.613 135.642 175.467 135.596C174.432 135.274 173.45 136.049 172.418 135.403C171.727 134.968 171.773 133.483 171.258 132.092C171.186 131.896 170.794 131.913 170.668 131.082C170.35 128.992 170.245 126.672 169.883 124.447C169.806 123.968 169.353 124.552 169.512 123.35C169.524 123.269 169.851 122.835 169.893 122.429C169.923 122.148 169.699 121.315 169.786 120.949C169.873 120.583 170.108 121.275 170.274 120.837C170.439 120.394 170.22 119.442 170.641 119.272ZM149.753 126.002C148.895 126.168 151.839 126.7 151.186 126.276C151.151 126.255 149.795 125.993 149.753 126.002ZM176.437 108.133C176.427 106.753 175.664 108.561 175.642 109.61C175.587 110.65 176.424 108.547 176.437 108.133ZM180.517 108.892C180.616 107.743 178.474 111.406 179.282 110.885C179.328 110.856 180.509 108.958 180.517 108.892ZM172.748 131.488C172.738 131.449 172.455 131.446 172.453 131.486C172.425 132.447 172.991 132.452 172.748 131.488ZM184.586 110.656C184.86 110.125 184.075 110.311 183.744 110.973C183.471 111.497 184.237 111.306 184.586 110.656ZM148.09 143.097C148.049 143.117 148.077 143.318 148.314 143.23C149.074 142.946 148.769 142.769 148.09 143.097ZM189.294 116.6C188.881 115.576 191.4 113.027 191.792 114.406C191.857 114.649 190.566 114.541 190.457 114.969C190.245 115.725 192.338 114.948 191.592 116.032C191.449 116.217 189.308 116.655 189.289 116.601C189.29 116.601 189.292 116.6 189.294 116.6ZM146.182 125.568C146.142 125.568 146.059 125.838 146.097 125.851C147.01 126.147 147.174 125.622 146.182 125.568ZM152.647 154.211C152.595 154.282 153.014 154.828 153.087 154.788C154.422 153.935 153.633 152.886 152.647 154.211ZM153.799 107.865C153.455 106.913 153.738 106.552 154.668 107.356C154.365 107.502 154.096 107.7 153.799 107.865Z" fill="white"/>
<path d="M147.883 189.443C148.305 189.206 148.851 189.511 149.241 189.91C149.372 190.034 149.281 190.561 149.373 190.67C149.567 190.885 149.716 190.63 149.89 190.882C149.947 190.968 149.842 191.805 149.903 191.876C150.249 192.259 150.567 192.055 150.918 192.244C152.645 193.172 154.36 193.503 156.144 193.871C156.716 193.991 157.468 194.742 158.057 194.395C158.127 194.354 158.068 193.618 158.08 193.557C158.269 192.623 158.234 194.112 158.378 194.306C158.961 195.073 159.555 195.122 160.084 194.818C160.307 194.687 160.024 193.232 160.284 194.045C160.302 194.1 160.274 194.884 160.34 194.965C160.487 195.147 160.743 194.997 160.854 195.054C161.067 195.169 161.102 195.159 161.301 195.159C161.571 195.166 161.923 195.538 162.198 195.346C162.257 195.303 162.134 194.506 162.224 194.365C162.314 194.223 162.577 194.277 162.675 194.461C162.773 194.645 162.772 195.277 162.796 195.42C162.995 196.631 163.202 194.926 163.237 194.882C163.902 194.128 164.561 195.047 165.233 194.993C165.733 194.95 166.243 194.588 166.726 194.588C167.296 194.592 167.818 194.977 168.365 194.845C168.423 194.832 168.255 193.901 168.325 193.883C169.059 193.694 169.808 193.71 170.632 194.245C170.715 194.3 170.725 195.134 170.815 195.237C171.357 195.854 172.343 197.366 172.089 193.758C172.416 193.853 172.808 193.94 173.197 194.614C173.449 195.047 173.418 195.966 173.578 195.55C173.614 195.458 173.424 194.688 173.487 194.608C173.75 194.272 174.133 194.468 174.368 194.013C174.415 193.918 174.276 193.224 174.271 193.095C174.236 192.053 174.777 193.69 174.855 193.802C175.427 194.637 175.664 194.222 176.046 194.17C176.135 194.158 175.847 193.245 175.925 193.2C176.331 192.981 176.787 192.969 177.302 193.288C177.416 193.361 177.504 194.171 177.568 194.246C177.852 194.568 177.561 193.065 177.822 193.345C177.877 193.402 178.01 194.083 178.034 194.155C178.418 195.294 178.138 193.62 178.157 193.577C178.407 192.994 179.061 194.655 179.368 194.32C179.404 194.278 179.093 193.452 179.204 193.387C179.942 192.951 180.83 192.955 181.811 193.389C181.963 193.455 182.07 194.112 182.102 194.187C182.601 195.362 182.184 193.71 182.203 193.637C182.376 193.1 183.117 194.359 182.685 192.367C184.223 192.592 185.002 191.071 186.963 192.157C186.988 192.168 187.315 192.94 187.363 192.96C187.951 193.202 187.323 192.058 186.849 190.517C186.726 190.132 187.767 191.76 187.851 191.875C188.147 192.307 188.651 193.449 188.717 193.528C188.736 193.55 188.752 193.567 188.766 193.578C189.125 193.882 187.35 190.485 187.559 190.374C187.569 190.376 187.893 191.064 187.946 191.121C188.116 191.299 188.033 191.002 188.213 191.202C188.626 191.667 189.631 193.401 189.282 192.263C189.235 192.116 188.076 190.086 188.321 190.076C188.421 190.074 188.738 189.849 188.91 189.925C189.081 190 189.393 190.691 189.416 190.715C190.182 191.423 190.289 191.838 191.177 193.027C192.069 194.207 190.241 191.216 190.095 190.847C189.948 190.481 190.565 191.069 190.763 191.283C190.96 191.498 191.148 191.944 191.276 192.055C192.12 192.778 190.492 190.495 190.29 189.966C189.803 188.718 191.343 190.82 191.689 190.9C191.781 190.923 191.416 190.454 191.434 190.376C191.506 190.078 192.067 190.68 191.867 189.919C191.837 189.794 191.125 188.389 191.878 189.264C191.986 189.39 192.308 189.955 192.468 190.02C192.71 190.119 193.003 190.088 193.006 189.821C193.007 189.623 192.283 188.828 192.591 189.016C192.728 189.1 192.994 189.678 193.223 189.792C193.453 189.906 193.688 189.702 193.769 189.615C193.85 189.528 193.318 188.914 193.293 188.865C193.154 188.58 193.094 188.138 193.109 188.127C193.805 187.483 195.368 187.975 195.811 186.997C195.845 186.922 195.249 186.309 195.248 186.291C195.204 185.856 196.541 187.701 197.181 188.152C196.02 186.865 196.308 187.031 196.318 186.768C196.322 186.64 195.84 186.17 195.801 186.114C195.218 185.269 196.159 186.193 196.357 186.377C197.083 187.056 196.368 186.124 196.856 186.576C197.342 187.022 197.894 187.837 198.02 187.705C197.638 187.213 196.45 186.104 196.37 185.821C196.062 184.76 197.582 185.063 197.967 184.863C198.345 184.673 198.353 184.5 198.676 184.489C199.261 184.467 198.288 183.744 198.063 183.181C197.838 182.619 199.907 184.736 200.396 185.145C200.886 185.552 200.438 185.073 200.726 185.277C201.015 185.48 201.258 185.853 201.433 185.858C201.61 185.861 200.992 184.862 200.526 184.386C199.542 183.374 198.361 182.475 198.934 182.618C198.967 182.626 199.508 183.188 199.609 183.194C200.387 183.227 200.765 182.851 201.499 182.805C201.601 182.8 202.22 183.407 202.288 183.41C202.991 183.434 201.775 182.612 200.673 181.402C202.301 182.819 203.399 183.564 203.625 183.306C203.761 183.153 203.007 182.587 202.57 182.071C202.438 181.916 203.03 182.212 202.699 181.915C201.618 180.947 200.272 180.036 200.976 180.187C201.009 180.195 201.603 180.722 201.671 180.713C202.117 180.655 200.942 179.698 201.003 179.317C201.049 179.021 202.071 179.199 202.373 179.041C204.324 180.482 204.054 179.909 202.768 178.834C202.942 178.71 202.99 178.479 203.29 178.454C203.393 178.445 203.942 178.885 204.009 178.922C205.059 179.497 203.777 178.492 203.748 178.421C203.5 177.691 204.746 178.05 203.987 177.012C203.96 176.974 202.566 176.028 203.659 176.605C203.734 176.645 204.294 177.189 204.459 177.046C204.62 176.908 205.603 177.05 205.101 176.381C204.981 176.219 203.914 175.346 204.897 175.789C205.03 175.849 205.43 176.122 205.673 176.24C206.45 176.613 205.025 175.678 206.313 176.346C207.6 177.015 208.653 177.369 207.958 176.587C207.938 176.563 206.817 175.808 206.884 175.738C206.992 175.625 207.344 175.581 207.416 175.44C207.449 175.372 206.7 174.993 206.694 174.974C206.539 174.304 207.369 174.353 207.914 174.035C208.014 173.979 207.151 173.175 208.038 173.433C209.011 173.709 212.539 175.841 211.915 174.921C211.669 174.547 207.146 171.931 209.717 172.84C209.43 171.925 210.967 171.928 210.395 170.889C210.371 170.841 209.091 170.137 209.139 170.08C209.214 169.995 209.858 170.224 209.931 170.172C210.253 169.96 209.839 169.457 210.05 169.2C210.128 169.104 210.757 169.422 210.85 169.307C210.943 169.19 210.126 168.742 210.612 168.744C210.984 168.739 212.791 169.33 213.073 169.227C211.348 168.506 211.436 168.395 211.065 167.997C210.993 167.92 210.372 167.719 210.307 167.671C210.026 167.472 210.56 167.589 210.251 167.377C210.177 167.326 209.585 167.088 209.491 167.033C208.669 166.557 210.085 166.879 210.332 166.933C211.271 167.138 210.518 166.784 210.912 166.802C211.304 166.822 211.676 167.158 211.938 167.107C212.484 166.994 212.506 166.636 212.639 166.353C212.686 166.246 211.857 166.033 211.845 166.011C211.719 165.723 212.655 165.791 211.094 165.11C215.301 166.371 210.733 164.853 211.674 164.809C211.749 164.807 213.733 165.419 213.986 165.623C214.234 165.843 213.578 165.758 213.978 166.057C214.073 166.123 215.841 166.961 215.941 167.032C216.734 167.551 213.803 166.538 213.638 166.492C211.866 165.99 213.755 166.928 213.866 167.046C214.385 167.556 213.893 167.627 214.242 168.041C214.466 168.311 216.358 169.051 216.253 169.151C215.903 169.483 213.208 168.59 215.338 169.876C215.79 170.154 217.878 170.915 216.141 170.549C216.031 170.527 214.465 170.131 215.342 170.652C215.453 170.718 216.049 170.969 216.09 171.012C216.352 171.294 215.841 171.178 216.003 171.428C216.164 171.677 216.42 172.012 216.14 172.104C215.972 172.16 214.808 171.809 214.519 171.734C213.683 171.521 214.887 172.241 213.91 171.902C212.93 171.558 211.573 170.746 210.866 170.684C212.392 171.39 213.952 172.127 215.483 172.845C215.187 173.349 214.475 173.581 214.291 174.128C214.269 174.196 215.113 174.529 215.111 174.613C215.101 174.958 214.404 174.912 214.484 175.321C214.55 175.638 215.268 176.334 215.359 176.679C213.58 175.93 213.977 176.576 213.683 176.75C213.581 176.81 213.133 176.559 212.951 176.542C212.278 176.481 213.832 177.184 214.031 177.377C214.879 178.205 211.498 176.367 211.407 176.724C211.402 176.741 213.071 177.957 213.164 178.051C213.782 178.65 212.526 177.729 212.329 177.769C211.966 177.845 211.465 177.732 211.844 178.276C211.957 178.434 212.957 179.256 212.025 178.889C211.903 178.841 211.326 178.484 211.283 178.478C210.561 178.397 212.382 179.501 212.905 180.03C213.426 180.562 212.031 180.023 211.642 179.847C210.635 179.391 211.301 179.508 211.213 179.445C210.168 178.699 210.257 178.977 210.088 179.044C208.301 177.961 208.304 178.194 209.92 179.117C210.096 179.218 209.991 179.018 210.088 179.044C211.762 180.232 211.855 180.579 210.102 179.768C209.28 179.386 208.458 178.73 208.591 179.233C208.65 179.461 209.893 180.187 210.144 180.52C210.716 181.283 209.358 180.904 209.345 181.301C209.339 181.447 210.059 181.787 210.077 181.903C210.125 182.214 209.526 182.042 209.647 182.399C209.659 182.432 210.365 182.86 210.333 182.924C210.104 183.422 209.393 183.511 209.052 183.951C208.888 184.164 208.959 184.829 208.711 185.002C208.282 185.313 206.979 185.032 206.946 185.537C206.92 185.865 207.598 186.338 207.958 186.785C208.653 187.657 206.887 186.731 206.624 186.575C206.616 186.569 206.615 186.267 206.21 186.091C205.487 185.582 206.623 186.57 206.624 186.575C206.452 186.477 206.01 186.712 206.069 186.885C206.102 186.979 206.714 187.465 206.719 187.505C206.836 188.445 206.549 189.069 205.838 189.304C205.819 189.302 205.186 188.698 205.149 188.7C204.613 188.71 205.23 189.614 205.473 190.279C205.718 190.943 205.383 190.983 204.183 190.066C204.154 190.365 203.446 190.138 203.027 189.986C202.61 189.834 203.784 191.064 203.795 191.1C204.167 192.243 203.261 191.764 202.754 192.031C202.51 192.157 202.288 192.695 202.199 193.023C202.129 193.287 201.762 193.079 201.773 193.409C201.773 193.453 202.294 194.004 202.306 194.032C202.721 194.872 201.592 193.4 201.339 193.183C200.419 192.389 199.927 191.968 200.071 192.588C200.106 192.729 201.668 194.898 201.667 195.101C201.664 195.361 201.103 194.586 201.116 194.875C201.117 194.899 201.494 195.351 201.394 195.401C200.931 195.635 200.287 195.71 199.905 196.078C199.852 196.126 200.495 196.811 200.427 196.893C200.104 197.28 199.643 197.58 198.995 197.507C198.834 197.487 198.513 196.912 198.379 196.769C197.569 195.903 198.382 197.421 198.368 197.47C198.12 198.648 196.7 197.739 196.35 198.833C196.336 198.893 196.982 200.65 196.011 199.403C195.945 199.321 194.968 198.035 195.416 199.048C195.444 199.112 195.962 199.765 195.763 199.787C195.566 199.808 195.591 200.436 194.916 199.778C194.701 199.572 193.742 198.275 194.18 199.496C194.217 199.578 195.314 202.278 194.226 200.601C194.048 200.325 193.045 198.469 193.329 199.547C193.384 199.756 193.694 200.123 193.712 200.448C193.738 200.95 193.221 200.586 193.42 201.543C193.457 201.712 193.934 203.078 193.289 202.188C193.188 202.048 192.909 201.4 192.798 201.368C192.779 201.363 192.76 201.358 192.742 201.355C192.243 201.264 192.049 201.828 191.478 201.578C191.271 201.486 190.855 200.423 190.591 200.21C190.327 199.996 189.936 199.852 190.01 200.389C190.081 200.927 190.975 202.516 190.812 202.746C190.091 203.752 188.718 203.151 187.731 203.342C187.582 203.371 187.92 203.94 187.713 204.027C186.966 204.35 185.8 205.366 184.753 204.234C183.923 203.328 184.328 202.331 183.814 202.014C183.572 201.861 183.953 203.947 183.923 204.024C183.654 204.803 183.087 203.989 182.763 204.371C182.695 204.451 182.995 205.256 182.934 205.315C182.726 205.523 182.372 205.22 182.156 205.346C182.059 205.405 182.236 206.034 182.126 206.009C181.866 205.957 181.591 205.742 181.228 205.199C181.195 205.149 181.142 204.327 180.968 204.337C180.686 204.356 180.219 203.845 180.046 204.522C179.995 204.726 180.313 206.184 179.89 205.222C179.802 205.021 179.473 203.258 179.571 204.822C179.59 205.081 179.627 207.21 179.158 205.932C179.034 205.595 178.61 204.185 178.547 204.433C178.54 204.472 178.76 205.246 178.684 205.341C178.411 205.664 178.053 205.647 177.765 205.957C177.688 206.042 177.977 206.831 177.857 206.931C177.524 207.208 177.024 207.084 176.619 206.891C176.47 206.818 176.444 206.125 176.421 206.053C176.06 204.881 176.249 206.515 176.213 206.618C175.989 207.238 175.619 206.517 175.359 206.766C175.287 206.833 175.469 207.596 175.463 207.668C175.403 208.368 175.306 206.96 175.176 206.824C174.811 206.438 174.493 206.55 174.21 206.694C174.106 206.747 174.363 207.627 174.267 207.665C173.704 207.907 173.077 207.906 172.445 207.484C172.325 207.403 172.302 206.701 172.26 206.545C171.965 205.457 171.937 206.997 171.903 207.147C171.751 207.834 171.581 207.232 171.388 207.372C170.443 208.066 169.14 207.791 168.175 207.626C166.902 207.416 165.906 206.826 164.753 207.077C164.68 207.092 164.815 208.015 164.753 208.04C163.938 208.318 163.099 208.002 162.283 208.31C162.215 208.334 162.357 209.209 162.249 209.277C162.028 209.422 161.738 209.387 161.5 209.115C161.384 208.985 161.499 208.222 161.384 208.106C161.114 207.834 160.843 207.782 160.576 207.933C160.465 207.999 160.67 208.894 160.521 208.909C159.521 209.035 158.522 209.216 157.506 208.066C157.434 207.987 157.343 206.155 157.202 206.509C157.199 207.018 157.208 207.616 157.211 208.159C155.782 208.473 154.311 207.84 152.874 207.724C152.812 207.719 152.907 208.691 152.787 208.687C152.11 208.664 151.408 208.92 150.745 207.937C150.675 207.841 150.756 206.134 150.541 206.387C150.502 206.433 150.188 206.652 150.1 207.02C150.088 207.075 150.118 207.874 150.021 207.894C149.432 207.997 148.832 207.793 148.264 207.28C148.177 207.196 148.31 206.352 148.249 206.285C147.798 205.814 147.229 206.431 146.837 205.636C146.532 205.098 146.748 203.641 146.694 202.19C146.683 201.985 146.476 201.939 146.538 201.101C146.662 198.991 146.885 196.686 147.007 194.437C147.015 194.194 146.992 194.202 146.937 194.121C146.925 194.044 146.937 193.881 146.998 193.298C147.043 193.223 147.159 192.84 147.245 192.447C147.294 192.175 147.292 191.318 147.379 190.971C147.45 190.623 147.448 191.341 147.564 190.933C147.675 190.52 147.718 189.549 147.883 189.443ZM201.171 189.287C200.485 188.814 202.532 190.995 202.174 190.347C202.154 190.313 201.205 189.31 201.171 189.287ZM212.435 172.613C211.154 172.235 212.834 173.214 213.819 173.517C214.806 173.815 212.825 172.725 212.435 172.613ZM212.484 170.188C211.432 169.998 215.297 171.745 214.624 171.143C214.587 171.109 212.545 170.198 212.484 170.188ZM147.432 201.821C147.431 201.781 147.302 201.735 147.297 201.774C147.175 202.719 147.435 202.81 147.432 201.821ZM212.346 167.777C211.784 167.637 212.319 168.086 213.018 168.259C213.581 168.396 213.045 167.948 212.346 167.777ZM192.485 192.124C192.459 192.088 192.36 192.104 192.497 192.315C192.94 192.995 192.927 192.731 192.485 192.124ZM213.51 164.282C213.194 164.783 209.77 163.978 210.302 163.603C210.397 163.537 211.311 164.121 211.648 164.102C212.266 164.05 210.211 163.245 211.393 163.393C211.625 163.364 213.534 164.263 213.515 164.284C213.513 164.284 213.512 164.283 213.51 164.282ZM198.616 186.76C198.586 186.734 198.469 186.793 198.494 186.824C199.098 187.56 199.338 187.436 198.616 186.76ZM187.016 193.033C186.974 192.96 186.686 193.003 186.711 193.077C187.202 194.559 187.812 194.464 187.016 193.033ZM202.428 179.075C201.735 178.405 201.731 178.219 202.767 178.833C202.637 178.905 202.553 179.004 202.428 179.075Z" fill="#FA5D00"/>
</g>
<defs>
<filter id="filter0_ii_190_312" x="0.00390625" y="-1.83959" width="300" height="320.358" filterUnits="userSpaceOnUse" color-interpolation-filters="sRGB">
<feFlood flood-opacity="0" result="BackgroundImageFix"/>
<feBlend mode="normal" in="SourceGraphic" in2="BackgroundImageFix" result="shape"/>
<feColorMatrix in="SourceAlpha" type="matrix" values="0 0 0 0 0 0 0 0 0 0 0 0 0 0 0 0 0 0 127 0" result="hardAlpha"/>
<feOffset dy="18.5185"/>
<feGaussianBlur stdDeviation="23.4074"/>
<feComposite in2="hardAlpha" operator="arithmetic" k2="-1" k3="1"/>
<feColorMatrix type="matrix" values="0 0 0 0 1 0 0 0 0 0.562079 0 0 0 0 0.178899 0 0 0 0.33 0"/>
<feBlend mode="normal" in2="shape" result="effect1_innerShadow_190_312"/>
<feColorMatrix in="SourceAlpha" type="matrix" values="0 0 0 0 0 0 0 0 0 0 0 0 0 0 0 0 0 0 127 0" result="hardAlpha"/>
<feOffset dy="-49.6296"/>
<feGaussianBlur stdDeviation="41.2963"/>
<feComposite in2="hardAlpha" operator="arithmetic" k2="-1" k3="1"/>
<feColorMatrix type="matrix" values="0 0 0 0 0.973595 0 0 0 0 0.227172 0 0 0 0 0 0 0 0 0.15 0"/>
<feBlend mode="normal" in2="effect1_innerShadow_190_312" result="effect2_innerShadow_190_312"/>
</filter>
<clipPath id="clip0_190_312">
<rect width="300" height="300" rx="80" fill="white"/>
</clipPath>
</defs>
</svg>
